<mxfile host="Electron" modified="2024-02-13T17:52:11.133Z" agent="Mozilla/5.0 (Windows NT 10.0; Win64; x64) AppleWebKit/537.36 (KHTML, like Gecko) draw.io/23.0.2 Chrome/120.0.6099.109 Electron/28.1.0 Safari/537.36" etag="qjIPHQb2ylex0pmJO-qE" version="23.0.2" type="device" pages="3">
  <diagram id="C5RBs43oDa-KdzZeNtuy" name="Page-1">
    <mxGraphModel dx="1050" dy="621" grid="1" gridSize="8" guides="1" tooltips="1" connect="1" arrows="1" fold="1" page="1" pageScale="1" pageWidth="827" pageHeight="1169" math="0" shadow="0">
      <root>
        <mxCell id="WIyWlLk6GJQsqaUBKTNV-0" />
        <mxCell id="WIyWlLk6GJQsqaUBKTNV-1" parent="WIyWlLk6GJQsqaUBKTNV-0" />
        <mxCell id="go71uuyFb68-o8KQwj31-0" value="&lt;b&gt;&lt;font style=&quot;font-size: 15px;&quot;&gt;Admin&lt;/font&gt;&lt;/b&gt;" style="rounded=0;whiteSpace=wrap;html=1;strokeWidth=1;" parent="WIyWlLk6GJQsqaUBKTNV-1" vertex="1">
          <mxGeometry x="8" y="472" width="154" height="64" as="geometry" />
        </mxCell>
        <mxCell id="go71uuyFb68-o8KQwj31-1" value="" style="ellipse;whiteSpace=wrap;html=1;aspect=fixed;strokeWidth=1;" parent="WIyWlLk6GJQsqaUBKTNV-1" vertex="1">
          <mxGeometry x="352" y="400" width="158" height="158" as="geometry" />
        </mxCell>
        <mxCell id="go71uuyFb68-o8KQwj31-2" value="&lt;font style=&quot;font-size: 17px;&quot;&gt;Online&amp;nbsp;&lt;br style=&quot;font-size: 17px;&quot;&gt;Electronics&lt;br&gt;Store&lt;/font&gt;" style="text;html=1;align=center;verticalAlign=middle;resizable=0;points=[];autosize=1;strokeColor=none;fillColor=none;strokeWidth=1;fontSize=17;fontStyle=1" parent="WIyWlLk6GJQsqaUBKTNV-1" vertex="1">
          <mxGeometry x="375" y="439" width="112" height="80" as="geometry" />
        </mxCell>
        <mxCell id="7LXTiwQA6VMSmtcWT2XY-0" value="" style="endArrow=classic;html=1;rounded=0;exitX=0.896;exitY=-0.013;exitDx=0;exitDy=0;strokeWidth=1;exitPerimeter=0;entryX=0.032;entryY=0.307;entryDx=0;entryDy=0;entryPerimeter=0;" parent="WIyWlLk6GJQsqaUBKTNV-1" source="go71uuyFb68-o8KQwj31-0" target="go71uuyFb68-o8KQwj31-1" edge="1">
          <mxGeometry width="50" height="50" relative="1" as="geometry">
            <mxPoint x="184" y="424.495" as="sourcePoint" />
            <mxPoint x="374" y="425.15" as="targetPoint" />
            <Array as="points">
              <mxPoint x="144" y="472" />
              <mxPoint x="144" y="448" />
              <mxPoint x="208" y="448" />
              <mxPoint x="288" y="448" />
              <mxPoint x="320" y="448" />
            </Array>
          </mxGeometry>
        </mxCell>
        <mxCell id="OEv7smBJ8PGCVRWERw6C-0" value="&lt;font style=&quot;font-size: 14px;&quot;&gt;Login&lt;/font&gt;" style="text;html=1;align=center;verticalAlign=middle;resizable=0;points=[];autosize=1;strokeColor=none;fillColor=none;fontSize=14;" parent="WIyWlLk6GJQsqaUBKTNV-1" vertex="1">
          <mxGeometry x="236" y="416" width="56" height="40" as="geometry" />
        </mxCell>
        <mxCell id="HgP1Isz0QvgKKk855VvQ-0" value="&lt;b&gt;&lt;font style=&quot;font-size: 15px;&quot;&gt;User&lt;/font&gt;&lt;/b&gt;" style="rounded=0;whiteSpace=wrap;html=1;strokeWidth=1;" parent="WIyWlLk6GJQsqaUBKTNV-1" vertex="1">
          <mxGeometry x="668" y="462" width="154" height="64" as="geometry" />
        </mxCell>
        <mxCell id="NfFAN9i1Wn4aYH5utW7M-10" value="" style="endArrow=classic;html=1;rounded=0;exitX=0.314;exitY=-0.008;exitDx=0;exitDy=0;strokeWidth=1;exitPerimeter=0;" parent="WIyWlLk6GJQsqaUBKTNV-1" source="HgP1Isz0QvgKKk855VvQ-0" edge="1">
          <mxGeometry width="50" height="50" relative="1" as="geometry">
            <mxPoint x="713" y="406" as="sourcePoint" />
            <mxPoint x="448" y="400" as="targetPoint" />
            <Array as="points">
              <mxPoint x="716" y="384" />
              <mxPoint x="584" y="384" />
              <mxPoint x="448" y="384" />
            </Array>
          </mxGeometry>
        </mxCell>
        <mxCell id="NfFAN9i1Wn4aYH5utW7M-11" value="&lt;font style=&quot;font-size: 14px;&quot;&gt;Registration&lt;/font&gt;" style="text;html=1;align=center;verticalAlign=middle;resizable=0;points=[];autosize=1;strokeColor=none;fillColor=none;fontSize=14;" parent="WIyWlLk6GJQsqaUBKTNV-1" vertex="1">
          <mxGeometry x="548" y="352" width="96" height="40" as="geometry" />
        </mxCell>
        <mxCell id="39QU_HT6DyWOAZmGMB1b-0" value="Manage Product" style="text;html=1;align=center;verticalAlign=middle;resizable=0;points=[];autosize=1;strokeColor=none;fillColor=none;fontSize=13;" parent="WIyWlLk6GJQsqaUBKTNV-1" vertex="1">
          <mxGeometry x="200" y="472" width="112" height="40" as="geometry" />
        </mxCell>
        <mxCell id="39QU_HT6DyWOAZmGMB1b-2" value="" style="endArrow=classic;html=1;rounded=0;strokeWidth=1;entryX=0.037;entryY=0.696;entryDx=0;entryDy=0;entryPerimeter=0;" parent="WIyWlLk6GJQsqaUBKTNV-1" target="go71uuyFb68-o8KQwj31-1" edge="1">
          <mxGeometry width="50" height="50" relative="1" as="geometry">
            <mxPoint x="162" y="510.5" as="sourcePoint" />
            <mxPoint x="352" y="511" as="targetPoint" />
          </mxGeometry>
        </mxCell>
        <mxCell id="39QU_HT6DyWOAZmGMB1b-5" value="" style="endArrow=classic;html=1;rounded=0;exitX=0.306;exitY=0.964;exitDx=0;exitDy=0;strokeWidth=1;entryX=0.75;entryY=1;entryDx=0;entryDy=0;exitPerimeter=0;" parent="WIyWlLk6GJQsqaUBKTNV-1" source="go71uuyFb68-o8KQwj31-1" target="go71uuyFb68-o8KQwj31-0" edge="1">
          <mxGeometry width="50" height="50" relative="1" as="geometry">
            <mxPoint x="387" y="616" as="sourcePoint" />
            <mxPoint x="119" y="680" as="targetPoint" />
            <Array as="points">
              <mxPoint x="400" y="600" />
              <mxPoint x="248" y="600" />
              <mxPoint x="124" y="600" />
            </Array>
          </mxGeometry>
        </mxCell>
        <mxCell id="39QU_HT6DyWOAZmGMB1b-6" value="View Order" style="text;html=1;align=center;verticalAlign=middle;resizable=0;points=[];autosize=1;strokeColor=none;fillColor=none;fontSize=13;" parent="WIyWlLk6GJQsqaUBKTNV-1" vertex="1">
          <mxGeometry x="220" y="568" width="88" height="40" as="geometry" />
        </mxCell>
        <mxCell id="39QU_HT6DyWOAZmGMB1b-7" value="" style="endArrow=classic;html=1;rounded=0;exitX=0.164;exitY=0.019;exitDx=0;exitDy=0;strokeWidth=1;exitPerimeter=0;entryX=1;entryY=0;entryDx=0;entryDy=0;" parent="WIyWlLk6GJQsqaUBKTNV-1" source="HgP1Isz0QvgKKk855VvQ-0" target="go71uuyFb68-o8KQwj31-1" edge="1">
          <mxGeometry width="50" height="50" relative="1" as="geometry">
            <mxPoint x="705" y="429.15" as="sourcePoint" />
            <mxPoint x="477" y="475" as="targetPoint" />
            <Array as="points">
              <mxPoint x="693" y="423" />
            </Array>
          </mxGeometry>
        </mxCell>
        <mxCell id="39QU_HT6DyWOAZmGMB1b-8" value="Login" style="text;html=1;align=center;verticalAlign=middle;resizable=0;points=[];autosize=1;strokeColor=none;fillColor=none;fontSize=13;" parent="WIyWlLk6GJQsqaUBKTNV-1" vertex="1">
          <mxGeometry x="568" y="384" width="56" height="40" as="geometry" />
        </mxCell>
        <mxCell id="39QU_HT6DyWOAZmGMB1b-9" value="" style="endArrow=classic;html=1;rounded=0;strokeWidth=1;exitX=0.992;exitY=0.393;exitDx=0;exitDy=0;fontSize=15;entryX=0;entryY=0;entryDx=0;entryDy=0;exitPerimeter=0;" parent="WIyWlLk6GJQsqaUBKTNV-1" source="go71uuyFb68-o8KQwj31-1" target="HgP1Isz0QvgKKk855VvQ-0" edge="1">
          <mxGeometry width="50" height="50" relative="1" as="geometry">
            <mxPoint x="512" y="462" as="sourcePoint" />
            <mxPoint x="440" y="585" as="targetPoint" />
          </mxGeometry>
        </mxCell>
        <mxCell id="39QU_HT6DyWOAZmGMB1b-10" value="View Product" style="text;html=1;align=center;verticalAlign=middle;resizable=0;points=[];autosize=1;strokeColor=none;fillColor=none;fontSize=13;" parent="WIyWlLk6GJQsqaUBKTNV-1" vertex="1">
          <mxGeometry x="548" y="426" width="96" height="40" as="geometry" />
        </mxCell>
        <mxCell id="39QU_HT6DyWOAZmGMB1b-11" value="" style="endArrow=classic;html=1;rounded=0;strokeWidth=1;entryX=0.994;entryY=0.591;entryDx=0;entryDy=0;entryPerimeter=0;exitX=0;exitY=0.5;exitDx=0;exitDy=0;" parent="WIyWlLk6GJQsqaUBKTNV-1" source="HgP1Isz0QvgKKk855VvQ-0" target="go71uuyFb68-o8KQwj31-1" edge="1">
          <mxGeometry width="50" height="50" relative="1" as="geometry">
            <mxPoint x="456" y="526" as="sourcePoint" />
            <mxPoint x="646" y="526" as="targetPoint" />
          </mxGeometry>
        </mxCell>
        <mxCell id="39QU_HT6DyWOAZmGMB1b-12" value="Make Order" style="text;html=1;align=center;verticalAlign=middle;resizable=0;points=[];autosize=1;strokeColor=none;fillColor=none;fontSize=13;" parent="WIyWlLk6GJQsqaUBKTNV-1" vertex="1">
          <mxGeometry x="556" y="459" width="88" height="40" as="geometry" />
        </mxCell>
        <mxCell id="39QU_HT6DyWOAZmGMB1b-13" value="" style="endArrow=classic;html=1;rounded=0;strokeWidth=1;entryX=0.911;entryY=0.793;entryDx=0;entryDy=0;entryPerimeter=0;exitX=0;exitY=0.5;exitDx=0;exitDy=0;" parent="WIyWlLk6GJQsqaUBKTNV-1" target="go71uuyFb68-o8KQwj31-1" edge="1">
          <mxGeometry width="50" height="50" relative="1" as="geometry">
            <mxPoint x="668" y="525.17" as="sourcePoint" />
            <mxPoint x="502.25800000000004" y="525.2999999999998" as="targetPoint" />
          </mxGeometry>
        </mxCell>
        <mxCell id="39QU_HT6DyWOAZmGMB1b-14" value="Place Order" style="text;html=1;align=center;verticalAlign=middle;resizable=0;points=[];autosize=1;strokeColor=none;fillColor=none;fontSize=13;" parent="WIyWlLk6GJQsqaUBKTNV-1" vertex="1">
          <mxGeometry x="552" y="491" width="88" height="40" as="geometry" />
        </mxCell>
        <mxCell id="39QU_HT6DyWOAZmGMB1b-16" style="edgeStyle=orthogonalEdgeStyle;rounded=0;orthogonalLoop=1;jettySize=auto;html=1;exitX=0.629;exitY=0.982;exitDx=0;exitDy=0;exitPerimeter=0;entryX=0.325;entryY=1.003;entryDx=0;entryDy=0;entryPerimeter=0;" parent="WIyWlLk6GJQsqaUBKTNV-1" source="go71uuyFb68-o8KQwj31-1" target="HgP1Isz0QvgKKk855VvQ-0" edge="1">
          <mxGeometry relative="1" as="geometry">
            <mxPoint x="718" y="528" as="targetPoint" />
            <Array as="points">
              <mxPoint x="451" y="573" />
              <mxPoint x="718" y="573" />
            </Array>
            <mxPoint x="452" y="560" as="sourcePoint" />
          </mxGeometry>
        </mxCell>
        <mxCell id="39QU_HT6DyWOAZmGMB1b-17" value="Viewd Recently&amp;nbsp;" style="text;html=1;align=center;verticalAlign=middle;resizable=0;points=[];autosize=1;strokeColor=none;fillColor=none;fontSize=13;" parent="WIyWlLk6GJQsqaUBKTNV-1" vertex="1">
          <mxGeometry x="540" y="600" width="112" height="40" as="geometry" />
        </mxCell>
        <mxCell id="39QU_HT6DyWOAZmGMB1b-18" value="" style="endArrow=classic;html=1;rounded=0;strokeWidth=1;entryX=0.5;entryY=1;entryDx=0;entryDy=0;exitX=0.5;exitY=1;exitDx=0;exitDy=0;" parent="WIyWlLk6GJQsqaUBKTNV-1" source="go71uuyFb68-o8KQwj31-1" target="HgP1Isz0QvgKKk855VvQ-0" edge="1">
          <mxGeometry width="50" height="50" relative="1" as="geometry">
            <mxPoint x="431" y="560" as="sourcePoint" />
            <mxPoint x="738" y="508" as="targetPoint" />
            <Array as="points">
              <mxPoint x="431" y="564" />
              <mxPoint x="431" y="600" />
              <mxPoint x="520" y="600" />
              <mxPoint x="672" y="600" />
              <mxPoint x="721" y="600" />
              <mxPoint x="745" y="600" />
            </Array>
          </mxGeometry>
        </mxCell>
        <mxCell id="sjnM_qUbCUBTVLAzwCmM-1" value="View Product" style="text;html=1;align=center;verticalAlign=middle;resizable=0;points=[];autosize=1;strokeColor=none;fillColor=none;fontSize=13;" parent="WIyWlLk6GJQsqaUBKTNV-1" vertex="1">
          <mxGeometry x="220" y="531" width="96" height="40" as="geometry" />
        </mxCell>
        <mxCell id="sjnM_qUbCUBTVLAzwCmM-3" value="" style="endArrow=classic;html=1;rounded=0;exitX=0.177;exitY=0.885;exitDx=0;exitDy=0;strokeWidth=1;entryX=0.873;entryY=1.009;entryDx=0;entryDy=0;exitPerimeter=0;entryPerimeter=0;" parent="WIyWlLk6GJQsqaUBKTNV-1" source="go71uuyFb68-o8KQwj31-1" target="go71uuyFb68-o8KQwj31-0" edge="1">
          <mxGeometry width="50" height="50" relative="1" as="geometry">
            <mxPoint x="410" y="536" as="sourcePoint" />
            <mxPoint x="134" y="519" as="targetPoint" />
            <Array as="points">
              <mxPoint x="380" y="568" />
              <mxPoint x="142" y="568" />
            </Array>
          </mxGeometry>
        </mxCell>
        <mxCell id="sjnM_qUbCUBTVLAzwCmM-4" value="View Order" style="text;html=1;align=center;verticalAlign=middle;resizable=0;points=[];autosize=1;strokeColor=none;fillColor=none;fontSize=13;" parent="WIyWlLk6GJQsqaUBKTNV-1" vertex="1">
          <mxGeometry x="552" y="568" width="88" height="40" as="geometry" />
        </mxCell>
        <mxCell id="sjnM_qUbCUBTVLAzwCmM-5" value="View Whistlist" style="text;html=1;align=center;verticalAlign=middle;resizable=0;points=[];autosize=1;strokeColor=none;fillColor=none;fontSize=13;" parent="WIyWlLk6GJQsqaUBKTNV-1" vertex="1">
          <mxGeometry x="548" y="544" width="104" height="40" as="geometry" />
        </mxCell>
        <mxCell id="sjnM_qUbCUBTVLAzwCmM-6" value="" style="endArrow=classic;html=1;rounded=0;strokeWidth=1;exitX=0.425;exitY=1.011;exitDx=0;exitDy=0;exitPerimeter=0;entryX=0.657;entryY=0.985;entryDx=0;entryDy=0;entryPerimeter=0;" parent="WIyWlLk6GJQsqaUBKTNV-1" source="go71uuyFb68-o8KQwj31-1" target="HgP1Isz0QvgKKk855VvQ-0" edge="1">
          <mxGeometry width="50" height="50" relative="1" as="geometry">
            <mxPoint x="456" y="590" as="sourcePoint" />
            <mxPoint x="770" y="558" as="targetPoint" />
            <Array as="points">
              <mxPoint x="419" y="632" />
              <mxPoint x="545" y="632" />
              <mxPoint x="697" y="632" />
              <mxPoint x="746" y="632" />
              <mxPoint x="769" y="632" />
            </Array>
          </mxGeometry>
        </mxCell>
      </root>
    </mxGraphModel>
  </diagram>
  <diagram id="iSxv46fH1WVlBiOkEs3C" name="Page-2">
    <mxGraphModel dx="1050" dy="621" grid="1" gridSize="10" guides="1" tooltips="1" connect="1" arrows="1" fold="1" page="1" pageScale="1" pageWidth="850" pageHeight="1100" math="0" shadow="0">
      <root>
        <mxCell id="0" />
        <mxCell id="1" parent="0" />
      </root>
    </mxGraphModel>
  </diagram>
  <diagram id="_4IU7BFXEyeqfkZRZVGX" name="Page-3">
    <mxGraphModel dx="1050" dy="621" grid="1" gridSize="10" guides="1" tooltips="1" connect="1" arrows="1" fold="1" page="1" pageScale="1" pageWidth="850" pageHeight="1100" math="0" shadow="0">
      <root>
        <mxCell id="0" />
        <mxCell id="1" parent="0" />
      </root>
    </mxGraphModel>
  </diagram>
</mxfile>
